<svg xmlns="http://www.w3.org/2000/svg" width="128" height="128" viewBox="0 0 128 128">
  <title>MUSICAL NOTES</title>
  <g>
    <path d="M122.829,35.276a1.753,1.753,0,0,0-1.412-.4l-59.3,9.487A1.75,1.75,0,0,0,60.643,46.1v53.91A26.71,26.71,0,0,0,53.2,98.972c-10.285,0-18.342,5.375-18.342,12.236s8.057,12.235,18.342,12.235,18.343-5.374,18.343-12.235V75.9l41-6.559V90.519a26.653,26.653,0,0,0-7.441-1.034c-10.287,0-18.343,5.375-18.343,12.236s8.056,12.236,18.343,12.236,18.341-5.374,18.341-12.236V36.608A1.752,1.752,0,0,0,122.829,35.276ZM71.543,72.354V65.575l41-6.558V65.8Zm48.4,29.367c0,4.736-6.8,8.736-14.841,8.736s-14.843-4-14.843-8.736,6.8-8.736,14.843-8.736a22.115,22.115,0,0,1,8.511,1.619,1.749,1.749,0,0,0,2.43-1.612V56.964a1.75,1.75,0,0,0-2.026-1.728l-44.5,7.119a1.75,1.75,0,0,0-1.474,1.728v47.125c0,4.735-6.8,8.735-14.843,8.735s-14.842-4-14.842-8.735,6.8-8.736,14.842-8.736a22.122,22.122,0,0,1,8.513,1.619,1.75,1.75,0,0,0,2.43-1.612V47.587l55.8-8.927Z" fill="#4A3000" stroke="#4A3000" stroke-miterlimit="10"/>
    <path d="M41.241,79.327V33.694L81.8,27.207a1.751,1.751,0,0,0,1.474-1.728V6.307a1.75,1.75,0,0,0-2.027-1.728L31.814,12.485a1.751,1.751,0,0,0-1.473,1.728V68.125A26.655,26.655,0,0,0,22.9,67.091c-10.286,0-18.342,5.375-18.342,12.236S12.613,91.563,22.9,91.563,41.241,86.188,41.241,79.327Zm-3.5,0c0,4.735-6.8,8.736-14.842,8.736s-14.842-4-14.842-8.736,6.8-8.736,14.842-8.736a22.113,22.113,0,0,1,8.512,1.619,1.75,1.75,0,0,0,2.43-1.613V15.706L79.769,8.359V23.986L39.215,30.474A1.75,1.75,0,0,0,37.741,32.2Z" fill="#4A3000" stroke="#4A3000" stroke-miterlimit="10"/>
  </g>
</svg>
