<svg xmlns="http://www.w3.org/2000/svg" width="128" height="128" viewBox="0 0 128 128">
  <title>MUTE</title>
  <g>
    <path d="M81.857,14a1.753,1.753,0,0,0-1.789.072L40.489,39.855H10.307a5.757,5.757,0,0,0-5.75,5.75V82.4a5.757,5.757,0,0,0,5.75,5.75H40.489l39.579,25.784a1.75,1.75,0,0,0,2.7-1.467V15.538A1.75,1.75,0,0,0,81.857,14ZM8.057,82.4V45.605a2.252,2.252,0,0,1,2.25-2.25H39.259v41.29H10.307A2.252,2.252,0,0,1,8.057,82.4Zm71.216,26.839L42.759,85.447V42.553L79.273,18.766Z" fill="#4A3000" stroke="#4A3000" stroke-miterlimit="10"/>
    <path d="M110.011,64l12.92-12.919a1.75,1.75,0,0,0-2.475-2.475L107.537,61.525,94.617,48.606a1.75,1.75,0,1,0-2.474,2.475L105.062,64,92.143,76.919a1.75,1.75,0,1,0,2.474,2.475l12.92-12.919,12.919,12.919a1.75,1.75,0,0,0,2.475-2.475Z" fill="#4A3000" stroke="#4A3000" stroke-miterlimit="10"/>
  </g>
</svg>
